PathFileType	4	(X/Y/Z)	C:/Users/beibeiliu/ov580/test_trc/capture2\sequence.18_training_dense_right.trc
DataRate	CameraRate	NumFrames	NumMarkers	Units	OrigDataRate	OrigDataStartFrame	OrigNumFrames
120	120	18	19	mm	120	50	398
Frame#	Time	ThumbCMC			ThumbMCP			ThumbIP			ThumbTip			IndexMCP			IndexPIP			IndexTip			MiddleMCP			MiddlePIP			MiddleTip			RingMCP			RingPIP			RingTip			PinkyMCP			PinkyPIP			PinkyTip			BackHand1			BackHand2			BackHand3	
		X0	Y0	Z0	X1	Y1	Z1	X2	Y2	Z2	X3	Y3	Z3	X4	Y4	Z4	X5	Y5	Z5	X6	Y6	Z6	X7	Y7	Z7	X8	Y8	Z8	X9	Y9	Z9	X10	Y10	Z10	X11	Y11	Z11	X12	Y12	Z12	X13	Y13	Z13	X14	Y14	Z14	X15	Y15	Z15	X16	Y16	Z16	X17	Y17	Z17	X18	Y18	Z18	
49	0.408333	138.347	85.7891	22.3126	131.235	96.3331	-6.91029	130.48	102.852	-29.6785	134.516	99.9342	-53.9032	150.386	76.564	-47.531	119.148	75.0749	-55.4543	110.513	74.1419	-23.6447	146.693	59.1571	-47.9061	111.56	55.5942	-44.5863	115.752	61.9499	-11.2317	137.564	37.6693	-44.4286	110.807	46.1462	-35.2395	123.023	51.6244	-0.578743	138.269	24.7048	-33.0218	110.925	30.8665	-20.846	121.878	43.6542	4.60494	171.34	34.5366	3.58475	166.129	37.4153	33.6572	169.53	67.4803	20.9089	
50	0.416667	146.549	90.5628	19.4242	138.021	101.042	-6.21665	139.49	103.527	-30.6037	142.372	101.123	-56.5867	153.5	76.1322	-51.0929	122.819	80.4424	-57.2957	113.24	80.6467	-25.4522	142.437	57.5004	-52.208	114.271	64.4312	-47.7511	117.636	63.5428	-10.036	133.158	37.432	-44.0298	107.788	49.8557	-33.9554	122.151	53.5074	-0.0841942	128.964	26.0071	-32.5561	107.509	42.0168	-21.9491	120.423	44.203	7.52992	167.478	32.1621	0.603322	165.39	33.5548	32.5444	170.739	61.2844	19.9844	
51	0.425	153.157	90.5955	22.1458	147.538	97.062	-7.9792	146.648	100.057	-31.1968	147.896	97.6513	-56.6655	155.402	69.4413	-48.9825	127.168	78.8891	-56.972	119.134	86.8947	-23.8634	143.242	53.591	-48.6052	114.219	67.4617	-47.5768	121.935	72.7124	-9.27055	128.029	36.8964	-41.8808	106.674	59.2331	-29.9929	122.212	57.2281	0.705782	120.805	29.0459	-31.7903	101.377	43.7472	-19.056	121.407	51.0023	9.68296	161.704	26.3273	1.05863	159.325	26.3876	34.5217	174.13	56.9249	18.1331	
52	0.433333	159.848	86.6249	20.7468	152.376	97.6426	-6.77001	151.772	97.0757	-32.4864	151.618	97.9757	-55.0208	151.609	67.357	-51.4612	127.05	84.2638	-54.5345	124.97	84.0224	-18.7917	137.37	52.422	-50.4696	114.683	72.0419	-45.3839	122.475	70.7395	-8.10995	123.189	42.9299	-41.8599	105.063	61.7516	-28.2876	122.917	59.5111	2.04694	116.374	31.1274	-29.1529	100.743	52.4561	-16.6367	119.084	54.4476	9.94652	155.271	20.8844	3.08907	156.854	28.1266	37.0953	171.328	50.0858	17.1779	
53	0.441667	162.432	82.9379	22.0011	156.848	96.265	-4.85432	155.672	98.0487	-29.0999	154.548	94.7344	-57.3408	153.551	64.1358	-48.414	128.758	79.236	-55.4999	125.492	83.8151	-22.1288	137.792	53.7454	-48.0986	111.412	74.1488	-40.2206	122.421	71.6529	-6.5733	117.211	43.3761	-40.2567	102.416	64.2264	-25.8165	125.575	63.2804	1.74815	109.958	31.541	-26.51	96.038	53.6891	-12.8558	117.898	57.6087	10.8335	151.067	19.0339	6.18672	154.211	24.2899	36.3078	173.697	47.1126	16.5557	
54	0.45	161.591	77.7823	23.3368	156.621	90.2671	-1.47341	158.525	93.444	-30.4735	155.783	92.7987	-51.3814	149.257	62.2776	-50.7043	127.627	83.2179	-51.8465	127.404	85.9472	-20.5568	132.91	53.7437	-48.0201	111.81	76.4855	-37.8315	124.684	75.8383	-6.99411	116.157	47.0755	-38.364	100.486	66.3578	-23.2058	120.921	64.1741	3.39366	105.162	37.166	-26.4401	97.8905	59.4283	-10.105	120.771	54.3694	15.0735	146.923	20.1851	3.60797	149.236	21.4135	37.5188	171.496	42.704	14.3183	
55	0.458333	161.253	74.217	23.4562	158.222	85.2535	-3.70628	159.916	91.4164	-27.1864	156.209	87.0752	-53.2984	149.916	61.8396	-48.5365	127.476	80.1794	-51.1112	127.475	85.059	-19.938	130.628	52.0307	-45.9224	111.819	75.9337	-38.7927	125.962	71.9093	-3.58506	112.584	43.0069	-35.3638	104.488	71.3083	-21.984	119.494	62.0682	6.85641	103.805	36.0788	-23.8759	94.7286	60.8316	-7.61882	118.588	58.0793	13.0827	142.353	16.4659	4.85328	145.4	20.7653	39.0559	169.668	41.7941	15.8962	
56	0.466667	161.745	71.5169	23.826	158.771	84.5657	-3.0545	160.817	86.1111	-28.2768	158.911	85.4422	-52.0054	146.74	58.4477	-47.6365	130.189	80.1586	-52.6415	130.11	85.1351	-17.4033	129.111	50.503	-44.7368	110.185	74.1304	-39.6019	124.147	73.5334	-4.94142	113.395	45.0567	-34.798	98.9635	70.4136	-21.0072	116.245	62.9927	6.37533	102.223	38.5202	-23.7063	92.618	62.5354	-8.35582	114.249	54.2742	15.1369	136.254	15.6933	8.85535	141.992	18.6853	39.2114	163.695	36.4599	17.3529	
57	0.475	161.799	70.1752	25.3603	161.259	81.4684	-4.42509	164.116	84.8039	-31.5723	160.027	82.2127	-49.0119	149.18	57.2074	-45.9125	128.62	80.0644	-50.6315	131.149	81.7555	-16.0591	125.672	49.1161	-43.697	111.195	77.6293	-37.3705	122.388	72.6956	-4.28385	108.537	43.8565	-33.8444	99.3485	71.7639	-23.3033	119.795	66.0619	4.65015	95.2548	40.2668	-24.4473	95.2221	65.3266	-11.4405	116.887	55.8475	14.7594	135.135	16.3685	9.21609	136.48	17.5588	37.5161	160.208	33.3041	18.7134	
58	0.483333	160.645	66.4128	24.061	161.062	80.9283	-0.177551	166.542	84.3322	-25.8624	160.73	79.5866	-50.2274	146.305	54.9553	-44.1354	131.932	82.6696	-48.9968	133.253	83.6257	-16.3026	125.927	48.1939	-42.2616	109.381	77.5716	-35.6644	126.584	73.8828	-2.61747	110.573	47.1185	-34.8412	99.1419	73.1975	-20.5171	116.56	67.4739	5.30614	93.5207	41.5218	-22.9648	93.4006	67.7323	-8.87512	113.071	58.4842	16.5978	126.765	15.8486	11.6595	131.686	17.6196	43.6524	157.426	31.3831	21.9406	
59	0.491667	158.242	64.4003	26.2512	163.353	79.3368	0.381396	162.261	77.324	-26.6339	162.004	77.9998	-47.7807	148.763	55.4729	-43.7895	131.565	79.4793	-48.7053	130.707	79.9303	-14.1616	123.375	51.0028	-43.6369	111.221	79.0418	-36.082	122.243	75.1787	-2.62972	105.309	47.455	-34.7121	98.4394	75.4377	-20.9336	113.379	66.7303	7.47867	91.3632	41.5514	-21.7977	90.7658	68.8637	-8.07639	110.887	60.1543	13.9578	124.091	16.0906	7.40015	128.035	16.9175	43.4619	153.848	28.3799	23.6028	
60	0.5	159.693	65.2744	28.667	158.666	74.3452	1.7649	165.02	77.1985	-24.5876	165.537	77.1972	-48.9998	144.612	54.068	-45.7194	132.632	82.6572	-45.3198	134.678	81.3237	-11.5969	125.533	49.1393	-41.7064	115.148	79.8104	-38.1408	123.074	71.3789	0.920838	102.528	51.0743	-35.5385	99.1291	75.785	-20.8066	114.001	65.7915	8.32512	88.5709	43.9589	-21.006	96.257	70.8935	-8.33716	108.225	60.6357	17.3674	119.6	14.119	9.23898	123.656	16.1045	42.1535	151.144	26.6212	20.5039	
61	0.508333	158.062	62.3546	25.8656	162.674	76.8726	3.03968	168.248	77.1422	-24.9126	165.222	73.4778	-46.1937	148.153	52.5907	-41.8996	130.918	80.4201	-45.6141	134.641	82.3845	-14.6257	122.185	48.5286	-40.1954	115.905	81.5359	-36.3312	125.103	75.2374	-1.94649	106.973	51.2011	-34.7394	101.44	77.2691	-23.6912	113.818	67.9937	7.96599	92.4361	48.0568	-23.7897	91.9807	71.2585	-9.33223	113.551	59.0712	16.9969	117.222	15.927	7.76806	120.832	16.8234	40.608	152.026	28.2186	21.8143	
62	0.516667	158.749	61.9885	27.4365	161.269	73.4998	2.43146	169.241	72.7219	-26.6906	171.052	71.8831	-46.7821	145.816	51.2812	-41.7079	132.705	77.5011	-48.0633	136.197	81.4228	-13.1602	122.474	52.1647	-45.1113	116.851	81.1171	-37.0423	124.143	72.0729	0.0278015	104.491	49.668	-34.0534	105.421	79.4141	-20.6585	116.977	64.3022	9.65406	89.1546	46.3804	-23.7172	95.4007	72.5961	-8.65599	113.487	59.2003	14.6942	117.609	16.1514	9.90437	117.675	16.1794	42.5789	147.807	28.0133	20.7502	
63	0.525	158.915	60.8622	26.3029	162.62	70.4577	1.60837	172.363	70.8278	-23.779	175.567	69.3585	-48.4004	146.232	50.7609	-42.2636	138.54	81.9857	-46.6609	134.858	76.9301	-12.3604	124.077	50.1717	-42.4064	116.743	78.8864	-38.097	123.738	70.0864	1.88741	105.382	48.8578	-33.9596	102.23	76.8494	-20.8085	114.11	65.4841	7.82995	90.6967	45.999	-24.4432	95.5577	70.8689	-12.5375	110.085	60.9165	16.1016	117.439	13.6637	6.27337	117.974	17.1847	42.3682	149.428	28.2058	21.0463	
64	0.533333	157.218	60.1207	32.4075	166.276	68.0122	1.35904	174.397	69.864	-20.3308	177.08	65.0219	-45.7279	152.974	49.2888	-41.0112	140.774	80.8141	-44.8719	137.409	76.6516	-12.0786	130.277	50.1402	-42.7288	117.774	77.9074	-36.1875	126.847	72.8197	-0.755685	108.655	48.804	-35.0127	104.538	77.8917	-17.8909	116.687	66.1099	7.22344	94.8168	46.0643	-25.833	96.9712	71.4443	-10.6601	108.311	60.0038	17.3259	115.999	13.2042	5.83097	116.804	15.1282	41.03	147.14	25.7608	23.9774	
65	0.541667	159.549	58.6625	31.4421	163.761	66.3231	4.59106	175.17	66.2561	-19.0701	177.654	64.0739	-41.7553	153.645	47.3801	-40.0195	138.993	75.9245	-45.1415	137.334	77.2388	-14.0967	127.508	49.4047	-44.6807	120.547	77.0457	-37.0429	128.148	73.3514	-2.21667	113	50.5269	-36.2634	110.169	76.2849	-21.9766	121.255	63.33	7.26146	97.1722	47.178	-26.8491	98.2253	70.9875	-8.84316	110.86	59.3842	14.2586	117.144	12.7449	9.09681	118.286	16.7929	42.4033	147.215	21.6141	22.4126	
66	0.55	161.099	57.6649	32.2476	164.952	66.3211	6.90167	177.481	64.0156	-20.2996	178.208	61.0926	-41.4887	152.959	47.7131	-41.1886	145.75	75.149	-47.6175	142.355	75.6824	-10.617	131.775	45.947	-41.277	123.347	76.9495	-36.7139	129.216	68.9352	0.718964	112.154	50.6178	-37.6656	110.652	76.4657	-19.6027	121.234	63.5346	6.60868	97.8407	45.1801	-27.3471	98.9177	70.0656	-14.7015	109.751	57.7795	16.1462	116.136	10.7124	6.53097	116.432	15.782	40.2454	147.6	22.9621	26.2532	
